<?xml version="1.0" standalone="no"?><!DOCTYPE svg PUBLIC "-//W3C//DTD SVG 1.1//EN" "http://www.w3.org/Graphics/SVG/1.1/DTD/svg11.dtd"><svg t="1512716501562" class="icon" style="" viewBox="0 0 1024 1024" version="1.1" xmlns="http://www.w3.org/2000/svg" p-id="5281" xmlns:xlink="http://www.w3.org/1999/xlink" width="200" height="200"><defs><style type="text/css"></style></defs><path d="M102.790426 1024C102.531037 1018.003974 102.4 1011.974099 102.4 1005.913043L102.4 915.379654C102.4 769.635686 178.619763 641.659821 293.170547 568.994564L293.170547 568.994564C354.0858 614.872599 429.86692 642.06857 512 642.06857 594.206019 642.06857 670.048792 614.824274 730.991708 568.872292 845.552653 641.449312 921.6 769.365939 921.6 915.379654L921.6 1005.913043C921.6 1011.973658 921.468198 1018.003539 921.207322 1024L102.790426 1024 102.790426 1024ZM512 546.133333C662.810556 546.133333 785.066669 423.877222 785.066669 273.066667 785.066669 122.256111 662.810556 0 512 0 361.189444 0 238.933333 122.256111 238.933333 273.066667 238.933333 423.877222 361.189444 546.133333 512 546.133333Z" p-id="5282" fill="#949494"></path></svg>