<?xml version="1.0" standalone="no"?><!DOCTYPE svg PUBLIC "-//W3C//DTD SVG 1.1//EN" "http://www.w3.org/Graphics/SVG/1.1/DTD/svg11.dtd"><svg t="1512716374101" class="icon" style="" viewBox="0 0 1024 1024" version="1.1" xmlns="http://www.w3.org/2000/svg" p-id="3555" xmlns:xlink="http://www.w3.org/1999/xlink" width="200" height="200"><defs><style type="text/css"></style></defs><path d="M861.978 788.585c-34.168-28.714-97.677-76.925-97.677-140.748 0-26.29 0-219.429 0-219.429h-0.522c-4.911-144.008-77.364-229.606-207.809-247.223 12.497-10.595 20.271-25.788 20.271-45.349 0-40.396-32.747-83.592-73.143-83.592s-73.143 43.196-73.143 83.592c0 19.56 7.774 34.753 20.271 45.349-130.466 17.617-202.898 103.215-207.809 247.223h-0.522c0 0 0 193.139 0 219.429 0 66.435-63.509 112.034-97.677 140.748-22.361 30.783 15.465 36.885 37.533 36.885 11.139 0 18.286 0 18.286 0h606.041c0 0 7.147 0 18.286 0 22.089 0 59.914-6.102 37.616-36.885z" fill="#33A3F4" p-id="3556"></path><path d="M492.607 971.755c62.109 0 113.539-45.202 123.507-104.49h-247.014c9.968 59.288 61.398 104.49 123.507 104.49z" fill="#33A3F4" p-id="3557"></path></svg>